<mxfile host="app.diagrams.net" modified="2022-03-14T04:17:41.791Z" agent="5.0 (Macintosh)" etag="EgW3HN58Xx3DCvWbCong" version="17.1.0" type="github">
  <diagram id="kgpKYQtTHZ0yAKxKKP6v" name="Page-1">
    <mxGraphModel dx="875" dy="804" grid="1" gridSize="10" guides="1" tooltips="1" connect="1" arrows="1" fold="1" page="1" pageScale="1" pageWidth="850" pageHeight="1100" math="0" shadow="0">
      <root>
        <mxCell id="0" />
        <mxCell id="1" parent="0" />
        <mxCell id="3nuBFxr9cyL0pnOWT2aG-1" value="User" style="shape=umlLifeline;perimeter=lifelinePerimeter;container=1;collapsible=0;recursiveResize=0;rounded=0;shadow=0;strokeWidth=1;" parent="1" vertex="1">
          <mxGeometry x="120" y="80" width="100" height="260" as="geometry" />
        </mxCell>
        <mxCell id="3nuBFxr9cyL0pnOWT2aG-2" value="" style="points=[];perimeter=orthogonalPerimeter;rounded=0;shadow=0;strokeWidth=1;" parent="3nuBFxr9cyL0pnOWT2aG-1" vertex="1">
          <mxGeometry x="45" y="80" width="10" height="140" as="geometry" />
        </mxCell>
        <mxCell id="3nuBFxr9cyL0pnOWT2aG-5" value="User GUI" style="shape=umlLifeline;perimeter=lifelinePerimeter;container=1;collapsible=0;recursiveResize=0;rounded=0;shadow=0;strokeWidth=1;" parent="1" vertex="1">
          <mxGeometry x="300" y="80" width="100" height="260" as="geometry" />
        </mxCell>
        <mxCell id="3nuBFxr9cyL0pnOWT2aG-6" value="" style="points=[];perimeter=orthogonalPerimeter;rounded=0;shadow=0;strokeWidth=1;" parent="3nuBFxr9cyL0pnOWT2aG-5" vertex="1">
          <mxGeometry x="45" y="80" width="10" height="140" as="geometry" />
        </mxCell>
        <mxCell id="8FzZY1UFn7kH9PVHiw3O-6" value="return" style="verticalAlign=bottom;endArrow=open;dashed=1;endSize=8;shadow=0;strokeWidth=1;" edge="1" parent="3nuBFxr9cyL0pnOWT2aG-5">
          <mxGeometry x="-0.1683" relative="1" as="geometry">
            <mxPoint x="50" y="180" as="targetPoint" />
            <mxPoint x="409.5" y="180" as="sourcePoint" />
            <Array as="points" />
            <mxPoint as="offset" />
          </mxGeometry>
        </mxCell>
        <mxCell id="3nuBFxr9cyL0pnOWT2aG-7" value="return true/false" style="verticalAlign=bottom;endArrow=open;dashed=1;endSize=8;shadow=0;strokeWidth=1;entryX=0.505;entryY=0.46;entryDx=0;entryDy=0;entryPerimeter=0;" parent="1" source="8FzZY1UFn7kH9PVHiw3O-3" target="3nuBFxr9cyL0pnOWT2aG-5" edge="1">
          <mxGeometry x="-0.2786" relative="1" as="geometry">
            <mxPoint x="275" y="236" as="targetPoint" />
            <Array as="points" />
            <mxPoint as="offset" />
          </mxGeometry>
        </mxCell>
        <mxCell id="3nuBFxr9cyL0pnOWT2aG-8" value="createAccount()" style="verticalAlign=bottom;endArrow=block;shadow=0;strokeWidth=1;exitX=0.549;exitY=0.348;exitDx=0;exitDy=0;exitPerimeter=0;" parent="1" source="3nuBFxr9cyL0pnOWT2aG-1" target="8FzZY1UFn7kH9PVHiw3O-3" edge="1">
          <mxGeometry relative="1" as="geometry">
            <mxPoint x="210" y="170" as="sourcePoint" />
            <Array as="points">
              <mxPoint x="500" y="170" />
            </Array>
          </mxGeometry>
        </mxCell>
        <mxCell id="8FzZY1UFn7kH9PVHiw3O-1" value="User Class" style="shape=umlLifeline;perimeter=lifelinePerimeter;container=1;collapsible=0;recursiveResize=0;rounded=0;shadow=0;strokeWidth=1;" vertex="1" parent="1">
          <mxGeometry x="480" y="80" width="100" height="260" as="geometry" />
        </mxCell>
        <mxCell id="8FzZY1UFn7kH9PVHiw3O-2" value="" style="points=[];perimeter=orthogonalPerimeter;rounded=0;shadow=0;strokeWidth=1;" vertex="1" parent="8FzZY1UFn7kH9PVHiw3O-1">
          <mxGeometry x="45" y="80" width="10" height="140" as="geometry" />
        </mxCell>
        <mxCell id="8FzZY1UFn7kH9PVHiw3O-3" value="System" style="shape=umlLifeline;perimeter=lifelinePerimeter;container=1;collapsible=0;recursiveResize=0;rounded=0;shadow=0;strokeWidth=1;" vertex="1" parent="1">
          <mxGeometry x="660" y="80" width="100" height="260" as="geometry" />
        </mxCell>
        <mxCell id="8FzZY1UFn7kH9PVHiw3O-4" value="" style="points=[];perimeter=orthogonalPerimeter;rounded=0;shadow=0;strokeWidth=1;" vertex="1" parent="8FzZY1UFn7kH9PVHiw3O-3">
          <mxGeometry x="45" y="80" width="10" height="140" as="geometry" />
        </mxCell>
        <mxCell id="8FzZY1UFn7kH9PVHiw3O-5" value="verifyAccount()" style="verticalAlign=bottom;endArrow=block;shadow=0;strokeWidth=1;entryX=0.264;entryY=0.504;entryDx=0;entryDy=0;entryPerimeter=0;" edge="1" parent="1" target="8FzZY1UFn7kH9PVHiw3O-4">
          <mxGeometry relative="1" as="geometry">
            <mxPoint x="350" y="230" as="sourcePoint" />
            <mxPoint x="690" y="229" as="targetPoint" />
            <Array as="points">
              <mxPoint x="495" y="229.09" />
            </Array>
          </mxGeometry>
        </mxCell>
        <mxCell id="8FzZY1UFn7kH9PVHiw3O-7" value="UC 7: Create an Account" style="text;strokeColor=none;fillColor=none;html=1;align=center;verticalAlign=middle;whiteSpace=wrap;rounded=0;hachureGap=4;" vertex="1" parent="1">
          <mxGeometry x="360" y="30" width="150" height="30" as="geometry" />
        </mxCell>
      </root>
    </mxGraphModel>
  </diagram>
</mxfile>
